<svg width="48" height="48" viewBox="0 0 48 48" fill="none" xmlns="http://www.w3.org/2000/svg">
  <rect width="48" height="48" rx="8" fill="#0077BE"/>
  <path d="M15 15H27C30.3137 15 33 17.6863 33 21V21C33 24.3137 30.3137 27 27 27H15V15Z" fill="#2C3E50"/>
  <!-- Reduced inner white space by ~20% and increased stroke weight -->
  <path d="M22.5 16.5H27C27.8284 16.5 28.5 17.1716 28.5 18V21C28.5 21.8284 27.8284 22.5 27 22.5H22.5V16.5Z" fill="white"/>
  <path d="M15 27H21V33H15V27Z" fill="#2C3E50"/>
  <!-- Added subtle drop shadow for better edge definition -->
  <filter id="shadow" x="-1" y="-1" width="102%" height="102%">
    <feDropShadow dx="0" dy="0" stdDeviation="0.5" flood-opacity="0.3"/>
  </filter>
  <path d="M22.5 16.5H27C27.8284 16.5 28.5 17.1716 28.5 18V21C28.5 21.8284 27.8284 22.5 27 22.5H22.5V16.5Z" fill="white" filter="url(#shadow)"/>
</svg>